<svg width="347" height="264" viewBox="0 0 347 264" fill="none" xmlns="http://www.w3.org/2000/svg">
<path d="M142.351 201L151.384 168.065H161.813L164.109 186.878L173.39 168.065H182.123L183.022 192.716C183.155 195.977 184.02 198.106 185.616 199.104C185.25 199.769 184.535 200.418 183.471 201.05C182.406 201.682 181.159 201.998 179.728 201.998C178.331 201.998 177.216 201.799 176.385 201.399C175.553 201 174.904 200.468 174.438 199.802C173.607 198.605 173.191 196.858 173.191 194.563V179.143L163.36 201H157.172L153.679 178.594L148.09 201H142.351ZM198.635 201.998C191.316 201.998 187.657 198.555 187.657 191.668C187.657 186.778 189.004 182.753 191.699 179.592C194.56 176.232 198.469 174.552 203.426 174.552C207.019 174.552 209.73 175.384 211.56 177.047C213.389 178.71 214.304 181.289 214.304 184.782C214.304 190.105 212.874 194.313 210.013 197.407C207.218 200.468 203.426 201.998 198.635 201.998ZM199.933 180.291C199.533 181.189 199.167 182.32 198.835 183.684C198.535 185.015 198.186 186.745 197.787 188.874C197.388 191.003 197.188 193.382 197.188 196.01C197.188 196.875 197.321 197.59 197.587 198.156C197.887 198.721 198.419 199.004 199.184 199.004C199.949 199.004 200.565 198.821 201.03 198.455C201.529 198.089 201.962 197.474 202.328 196.609C202.993 195.078 203.592 192.899 204.124 190.072C204.657 187.21 204.939 185.165 204.973 183.934C205.039 182.703 205.072 181.638 205.072 180.74C205.072 179.808 204.939 179.043 204.673 178.444C204.407 177.846 203.891 177.546 203.126 177.546C202.394 177.546 201.779 177.779 201.28 178.245C200.781 178.71 200.332 179.392 199.933 180.291ZM229.166 198.256C228.135 200.751 225.972 201.998 222.679 201.998C221.016 201.998 219.652 201.416 218.587 200.252C217.722 199.287 217.289 198.256 217.289 197.158C217.289 194.663 217.872 190.687 219.036 185.231L222.679 166.069L232.809 165.071L227.969 190.321C227.403 192.783 227.12 194.446 227.12 195.311C227.12 197.208 227.802 198.189 229.166 198.256ZM258.52 195.461C258.52 196.925 259.268 197.873 260.765 198.305C260.399 199.536 259.501 200.484 258.07 201.15C256.873 201.715 255.609 201.998 254.278 201.998C252.98 201.998 251.982 201.815 251.284 201.449C250.618 201.117 250.103 200.667 249.737 200.102C249.138 199.237 248.839 197.989 248.839 196.359C248.839 195.394 249.105 193.581 249.637 190.92L250.336 187.127C250.901 184.233 251.184 182.254 251.184 181.189C251.184 179.326 250.668 178.394 249.637 178.394C248.34 178.394 247.275 179.343 246.443 181.239C246.111 181.971 245.828 182.886 245.595 183.983L242.202 201L232.171 201.998L239.207 166.069L249.238 165.071L248.839 167.067C247.907 172.19 247.042 175.617 246.244 177.346C248.107 175.483 250.751 174.552 254.178 174.552C257.804 174.552 259.95 175.75 260.615 178.145C260.848 178.91 260.965 179.625 260.965 180.291C260.965 180.956 260.932 181.555 260.865 182.087C260.832 182.586 260.732 183.301 260.566 184.233L259.917 187.826L258.769 193.465C258.603 194.23 258.52 194.895 258.52 195.461ZM285.013 192.567C285.845 193.132 286.261 194.047 286.261 195.311C286.261 196.542 285.944 197.557 285.312 198.355C284.68 199.154 283.849 199.819 282.817 200.351C280.688 201.449 278.476 201.998 276.18 201.998C273.885 201.998 272.055 201.749 270.691 201.25C269.36 200.751 268.246 200.035 267.348 199.104C265.584 197.341 264.703 194.846 264.703 191.619C264.703 186.595 266.067 182.553 268.795 179.492C271.722 176.199 275.731 174.552 280.821 174.552C283.982 174.552 286.344 175.217 287.907 176.548C289.072 177.546 289.654 178.86 289.654 180.49C289.654 186.346 284.597 189.273 274.484 189.273C274.351 190.138 274.284 190.937 274.284 191.668C274.284 193.199 274.617 194.263 275.282 194.862C275.981 195.428 276.962 195.71 278.226 195.71C279.49 195.71 280.788 195.428 282.119 194.862C283.483 194.263 284.447 193.498 285.013 192.567ZM274.833 187.127C277.195 187.127 279.058 186.395 280.422 184.932C281.786 183.534 282.468 181.721 282.468 179.492C282.468 178.727 282.318 178.145 282.019 177.746C281.753 177.313 281.337 177.097 280.771 177.097C280.206 177.097 279.673 177.213 279.174 177.446C278.709 177.646 278.226 178.112 277.727 178.844C276.496 180.507 275.532 183.268 274.833 187.127ZM327.291 201.998C323.266 201.998 321.253 200.435 321.253 197.307C321.253 195.943 321.536 193.947 322.102 191.319C322.7 188.658 323.1 186.795 323.299 185.73C323.765 183.301 323.998 181.705 323.998 180.939C323.998 179.243 323.366 178.394 322.102 178.394C321.27 178.394 320.455 178.977 319.656 180.141C318.858 181.272 318.276 182.985 317.91 185.281L314.816 201L305.085 201.998L307.78 188.425C308.079 186.928 308.362 185.331 308.628 183.634C308.894 181.937 309.027 180.956 309.027 180.69C309.027 179.16 308.462 178.394 307.331 178.394C306.565 178.394 305.767 178.96 304.935 180.091C304.104 181.222 303.455 182.952 302.989 185.281L299.945 201L290.114 201.998L295.354 175.55L303.488 174.552L302.64 179.592C303.505 177.796 304.736 176.515 306.332 175.75C307.929 174.951 309.975 174.552 312.47 174.552C313.901 174.552 315.082 174.901 316.014 175.6C316.945 176.299 317.56 177.213 317.86 178.345C318.425 177.18 319.423 176.265 320.854 175.6C322.318 174.901 323.931 174.552 325.695 174.552C327.491 174.552 328.822 174.752 329.687 175.151C330.585 175.517 331.3 176.016 331.832 176.648C332.731 177.812 333.18 179.459 333.18 181.588C333.18 183.684 332.731 186.911 331.832 191.269C331.367 193.398 331.134 194.862 331.134 195.661C331.134 196.426 331.35 197.041 331.783 197.507C332.248 197.973 332.814 198.239 333.479 198.305C333.147 199.437 332.398 200.335 331.234 201C330.103 201.665 328.788 201.998 327.291 201.998Z" fill="#009999"/>
<path d="M73.4376 5.06176C58.8709 7.00135 46.2573 12.7551 34.1375 22.8773C18.2118 36.1781 7.68011 56.077 4.77875 77.4451C2.15331 96.7791 7.97024 114.442 21.4975 133.74C23.2138 136.189 25.3596 138.849 28.3588 142.321C29.8233 144.016 35.3946 150.324 36.5138 151.61C41.5255 157.367 45.0248 161.729 47.9073 166.016C55.152 176.79 57.4781 182.313 54.7235 189.84L51.2946 200.338C51.2946 200.338 59.796 196.704 61.8567 195.684C72.1724 190.575 88.5842 181.905 105.861 171.214C128.412 157.259 144.501 145.671 150.646 138.155C164.362 121.377 170.498 103.739 169.312 83.173C168.091 61.9992 159.032 41.9561 143.946 27.3855C128.894 12.848 110.145 5.10461 88.7084 4.37595C83.3647 4.19432 78.293 4.41525 73.4376 5.06176ZM74.6654 13.2949C79.0229 12.7227 83.5902 12.5291 88.4264 12.6934C107.83 13.353 124.61 20.2898 138.159 33.3764C151.727 46.4812 159.899 64.5487 161.001 83.6502C162.063 102.069 156.637 117.673 144.205 132.88C138.875 139.399 123.175 150.712 101.484 164.134C88.544 172.141 73.993 180.53 63.3067 186.307C63.5108 183.716 63.3282 181.054 62.7207 178.315C61.5281 172.936 58.851 167.383 54.8112 161.376C51.6957 156.743 48.0168 152.14 42.7976 146.144C41.6477 144.823 36.0887 138.529 34.661 136.877C31.8299 133.6 29.8339 131.128 28.3121 128.957C15.8865 111.23 10.7251 95.5486 13.0309 78.5673C15.6597 59.2073 25.1912 41.2049 39.4788 29.2721C50.4085 20.1437 61.5931 15.0116 74.6654 13.2949Z" fill="white"/>
<path d="M53.5198 33.9162C42.004 41.8345 39.5932 57.9662 39.5932 57.9662C39.5932 57.9662 47.5066 45.4552 58.0013 37.869C68.4963 30.2827 81.572 27.6209 81.572 27.6209C81.572 27.6209 67.3426 24.4119 53.5198 33.9162Z" fill="white"/>
<path d="M119.404 177.627C118.894 177.673 106.396 184.93 105.916 185.186L56.2974 211.27C54.3776 212.292 49.5197 223.556 49.5197 223.556C49.5197 223.556 58.079 219.249 59.999 218.227L109.61 192.144C111.53 191.122 115.206 188.742 115.206 188.742C115.206 188.742 120.932 177.491 119.404 177.627Z" fill="white"/>
<path d="M119.072 211.849L123.387 211.937L119.072 211.849C119.003 215.254 118.122 218.885 116.39 222.533C114.658 226.181 112.123 229.739 108.893 232.976C105.664 236.213 101.831 239.037 97.6135 241.272C93.3959 243.508 88.9068 245.093 84.4159 245.949C79.9233 246.804 75.5558 246.904 71.5644 246.29C67.5735 245.675 64.0739 244.365 61.2179 242.511C59.698 241.524 58.3698 240.39 57.2418 239.132L87.8748 222.897L118.508 206.662C118.916 208.302 119.108 210.038 119.072 211.849Z" stroke="white" stroke-width="8.63313"/>
</svg>
